<svg xmlns="http://www.w3.org/2000/svg" viewBox="0 0 15.06 21.92"><defs><style>.cls-1{fill:none;stroke:#999;stroke-linecap:round;stroke-linejoin:round;}</style></defs><title>author-icon</title><g id="Layer_2" data-name="Layer 2"><g id="Layer_1-2" data-name="Layer 1"><rect class="cls-1" x="0.5" y="0.5" width="14.06" height="20.92"/><line class="cls-1" x1="2.25" y1="2.88" x2="11.59" y2="2.88"/><line class="cls-1" x1="2.25" y1="4.95" x2="5.36" y2="4.95"/><line class="cls-1" x1="2.25" y1="7.03" x2="3.29" y2="7.03"/><line class="cls-1" x1="2.25" y1="19.32" x2="3.29" y2="19.32"/><line class="cls-1" x1="5.36" y1="19.32" x2="12.63" y2="19.32"/><path class="cls-1" d="M4,17.07v-4.4c0-1.23,1.7-2.22,3.81-2.22s3.81,1,3.81,2.22v4.4"/><path class="cls-1" d="M10.15,8.11A2.34,2.34,0,1,1,7.81,5.77,2.34,2.34,0,0,1,10.15,8.11Z"/><line class="cls-1" x1="5.65" y1="13.56" x2="5.65" y2="17.07"/><line class="cls-1" x1="10.05" y1="13.56" x2="10.05" y2="17.07"/></g></g></svg>