<?xml version="1.0" standalone="no"?>
<!DOCTYPE svg PUBLIC "-//W3C//DTD SVG 20010904//EN"
 "http://www.w3.org/TR/2001/REC-SVG-20010904/DTD/svg10.dtd">
<svg version="1.0" xmlns="http://www.w3.org/2000/svg"
 width="111.000000pt" height="111.000000pt" viewBox="0 0 111.000000 111.000000"
 preserveAspectRatio="xMidYMid meet">
<metadata>
Created by potrace 1.14, written by Peter Selinger 2001-2017
</metadata>
<g transform="translate(0.000000,111.000000) scale(0.100000,-0.100000)"
fill="#000000" stroke="none">
<path d="M412 1090 c-104 -28 -167 -65 -247 -145 -136 -136 -189 -313 -150
-498 89 -421 606 -580 915 -281 228 220 227 573 -1 789 -107 100 -208 144
-354 151 -69 3 -107 0 -163 -16z m407 -107 c-3 -46 -1 -50 55 -106 219 -221
154 -589 -128 -728 -63 -30 -80 -34 -170 -37 -120 -4 -192 14 -279 72 -69 46
-118 105 -160 193 -30 64 -32 74 -32 184 0 113 1 116 38 193 25 50 58 96 93
131 50 49 54 56 54 99 l0 46 266 0 266 0 -3 -47z"/>
<path d="M348 974 c-3 -3 20 -62 52 -132 48 -103 62 -126 77 -123 27 6 125 7
147 1 17 -4 29 14 77 120 32 69 58 128 59 133 0 8 -404 10 -412 1z"/>
<path d="M298 798 c-17 -18 -44 -60 -59 -93 -25 -51 -29 -72 -29 -145 0 -90
20 -150 71 -220 60 -80 201 -138 308 -125 74 8 170 55 216 106 63 70 90 140
90 239 0 76 -4 93 -32 150 -32 66 -84 127 -100 117 -5 -3 -24 -40 -42 -81 -32
-74 -33 -77 -17 -110 33 -70 12 -166 -46 -209 -48 -36 -97 -46 -146 -31 -108
32 -161 143 -113 236 l18 37 -38 80 c-21 45 -41 81 -44 81 -4 0 -21 -15 -37
-32z"/>
<path d="M522 604 c-41 -28 -18 -104 31 -104 23 0 57 36 57 60 0 22 -33 60
-53 60 -7 0 -23 -7 -35 -16z"/>
</g>
</svg>
