<svg xmlns="http://www.w3.org/2000/svg" viewBox="0 0 12.97 19.73"><defs><style>.cls-1,.cls-2{fill:none;stroke:#999;stroke-linecap:round;stroke-linejoin:round;}.cls-1{stroke-width:0.5px;}</style></defs><title>book-icon</title><g id="Layer_2" data-name="Layer 2"><g id="Layer_1-2" data-name="Layer 1"><path class="cls-1" d="M2.15,16.63v2.85A2.08,2.08,0,0,0,2.54,19c.29-.49.29-1,.4-1s.1.46.39,1a1.84,1.84,0,0,0,.4.47V16.63"/><path class="cls-2" d="M12.45,3.31H1.91A1.41,1.41,0,1,1,1.91.5H12.45"/><line class="cls-2" x1="3.8" y1="14.26" x2="8.97" y2="14.26"/><path class="cls-2" d="M12,3.31c-.36,0-.65-.63-.65-1.4S11.65.5,12,.5"/><polyline class="cls-2" points="0.5 2.04 0.5 16.76 12.47 16.76 12.47 3.41"/><path class="cls-2" d="M6.47,6.68l.74,1.49a.46.46,0,0,0,.34.26l1.66.24L8,9.83a.45.45,0,0,0-.13.41l.28,1.64-1.48-.77a.47.47,0,0,0-.43,0l-1.48.77.29-1.64a.49.49,0,0,0-.14-.41L3.73,8.67l1.65-.24a.49.49,0,0,0,.35-.26Z"/><line class="cls-2" x1="2.43" y1="1.95" x2="3.43" y2="1.95"/><line class="cls-2" x1="5.43" y1="1.95" x2="6.43" y2="1.95"/><line class="cls-2" x1="8.43" y1="1.95" x2="9.43" y2="1.95"/></g></g></svg>