<svg xmlns="http://www.w3.org/2000/svg" viewBox="0 0 17.86 17.86"><defs><style>.cls-1{fill:none;stroke:#999;stroke-miterlimit:10;}</style></defs><title>setting</title><g id="Layer_2" data-name="Layer 2"><g id="Layer_1-2" data-name="Layer 1"><path class="cls-1" d="M11.88,8.91A3,3,0,1,1,8.93,6,2.95,2.95,0,0,1,11.88,8.91Z"/><path class="cls-1" d="M17.36,9.92v-2L15,7.65a6.2,6.2,0,0,0-.85-2.07l1.49-1.91-1.4-1.4-1.9,1.49a6.17,6.17,0,0,0-2.08-.87L9.92.5h-2L7.65,2.89a6.09,6.09,0,0,0-2.08.87L3.67,2.27l-1.4,1.4L3.76,5.58a6,6,0,0,0-.85,2.07L.5,7.94v2l2.42.29a6,6,0,0,0,.86,2.06L2.27,14.19l1.4,1.4L5.6,14.08a6,6,0,0,0,2,.85l.3,2.43h2l.29-2.43a6,6,0,0,0,2-.85l1.93,1.51,1.4-1.4-1.51-1.92a6,6,0,0,0,.86-2.06Z"/></g></g></svg>